<svg width="91" height="90" viewBox="0 0 91 90" fill="none" xmlns="http://www.w3.org/2000/svg">
<circle cx="45.5" cy="45" r="45" fill="#FFCFC5"/>
<circle cx="45.5" cy="45" r="30" fill="#FF9280"/>
<g clip-path="url(#clip0_431_13688)">
<path d="M42.997 53.5452C42.119 54.1115 41.0729 54.3584 40.0344 54.2442C38.9959 54.1299 38.0284 53.6616 37.2946 52.9179L36.6531 52.2906C36.3718 52.0029 36.2144 51.6166 36.2144 51.2144C36.2144 50.8121 36.3718 50.4256 36.6531 50.1381L39.376 47.4437C39.6612 47.1633 40.0452 47.0062 40.4452 47.0062C40.8451 47.0062 41.2291 47.1633 41.5143 47.4437C41.802 47.7249 42.1884 47.8824 42.5907 47.8824C42.993 47.8824 43.3793 47.7249 43.667 47.4437L47.9438 43.1669C48.0864 43.0263 48.1997 42.8587 48.2771 42.674C48.3544 42.4892 48.3942 42.2909 48.3942 42.0906C48.3942 41.8903 48.3544 41.692 48.2771 41.5072C48.1997 41.3224 48.0864 41.1548 47.9438 41.0142C47.6634 40.729 47.5063 40.345 47.5063 39.9451C47.5063 39.5451 47.6634 39.1611 47.9438 38.8759L50.6524 36.1672C50.9401 35.886 51.3264 35.7285 51.7286 35.7285C52.1311 35.7285 52.5174 35.886 52.8051 36.1672L53.4324 36.8088C54.1759 37.5426 54.6442 38.5101 54.7585 39.5485C54.8728 40.587 54.6259 41.6332 54.0595 42.5111C51.1085 46.8602 47.3537 50.6054 42.997 53.5452Z" fill="white" stroke="white" stroke-width="0.76718" stroke-linecap="round" stroke-linejoin="round"/>
</g>
<defs>
<clipPath id="clip0_431_13688">
<rect width="20" height="20" fill="white" transform="translate(35.5 35)"/>
</clipPath>
</defs>
</svg>
