<svg width="40" height="40" viewBox="0 0 40 40" fill="none" xmlns="http://www.w3.org/2000/svg">
<g clip-path="url(#clip0_431_13049)">
<rect x="2" y="2" width="36" height="36" fill="white" fill-opacity="0.5"/>
<path d="M11.6 24.88V12.6H26.4L27.98 11H10V24.88H11.6Z" fill="#090308"/>
<path d="M8 9H32V25H34V8.5C34 8.10218 33.842 7.72064 33.5607 7.43934C33.2794 7.15804 32.8978 7 32.5 7H7.5C7.10218 7 6.72064 7.15804 6.43934 7.43934C6.15804 7.72064 6 8.10218 6 8.5V25H8V9Z" fill="#090308"/>
<path d="M3 27V30.4C3 31.0896 3.27393 31.7509 3.76152 32.2385C4.24912 32.7261 4.91044 33 5.6 33H34.34C35.0296 33 35.6909 32.7261 36.1785 32.2385C36.6661 31.7509 36.94 31.0896 36.94 30.4V27H3ZM35 30.4C35 30.5591 34.9368 30.7117 34.8243 30.8243C34.7117 30.9368 34.5591 31 34.4 31H5.56C5.40087 31 5.24826 30.9368 5.13574 30.8243C5.02321 30.7117 4.96 30.5591 4.96 30.4V28.53H14.91C15.035 28.825 15.2437 29.0769 15.5103 29.2546C15.7768 29.4323 16.0896 29.5281 16.41 29.53H23.54C23.8604 29.5281 24.1732 29.4323 24.4397 29.2546C24.7063 29.0769 24.915 28.825 25.04 28.53H35V30.4Z" fill="#090308"/>
</g>
<rect x="1" y="1" width="38" height="38" stroke="black" stroke-width="2"/>
<defs>
<clipPath id="clip0_431_13049">
<rect x="2" y="2" width="36" height="36" fill="white"/>
</clipPath>
</defs>
</svg>
