<svg width="15" height="15" viewBox="0 0 15 15" fill="none" xmlns="http://www.w3.org/2000/svg">
<g clip-path="url(#clip0_431_13004)">
<path d="M5.73016 2.75L6.16016 1.64C6.23268 1.45206 6.36027 1.29041 6.52621 1.17621C6.69216 1.06201 6.88872 1.00059 7.09016 1H7.91016C8.1116 1.00059 8.30817 1.06201 8.47411 1.17621C8.64006 1.29041 8.76764 1.45206 8.84016 1.64L9.27016 2.75L10.7301 3.59L11.9101 3.41C12.1066 3.38333 12.3066 3.41567 12.4847 3.50292C12.6627 3.59017 12.8108 3.72838 12.9101 3.9L13.3101 4.6C13.4126 4.77435 13.4599 4.97568 13.4456 5.17742C13.4313 5.37916 13.3562 5.57183 13.2301 5.73L12.5001 6.66V8.34L13.2501 9.27C13.3762 9.42817 13.4513 9.62084 13.4656 9.82258C13.4799 10.0243 13.4326 10.2256 13.3301 10.4L12.9301 11.1C12.8308 11.2716 12.6827 11.4098 12.5047 11.4971C12.3266 11.5843 12.1266 11.6167 11.9301 11.59L10.7501 11.41L9.29016 12.25L8.86016 13.36C8.78764 13.5479 8.66006 13.7096 8.49411 13.8238C8.32817 13.938 8.1316 13.9994 7.93016 14H7.09016C6.88872 13.9994 6.69216 13.938 6.52621 13.8238C6.36027 13.7096 6.23268 13.5479 6.16016 13.36L5.73016 12.25L4.27016 11.41L3.09016 11.59C2.89368 11.6167 2.6937 11.5843 2.51564 11.4971C2.33759 11.4098 2.18949 11.2716 2.09016 11.1L1.69016 10.4C1.58766 10.2256 1.54044 10.0243 1.55472 9.82258C1.569 9.62084 1.64412 9.42817 1.77016 9.27L2.50016 8.34V6.66L1.75016 5.73C1.62412 5.57183 1.549 5.37916 1.53472 5.17742C1.52044 4.97568 1.56766 4.77435 1.67016 4.6L2.07016 3.9C2.16949 3.72838 2.31759 3.59017 2.49564 3.50292C2.6737 3.41567 2.87368 3.38333 3.07016 3.41L4.25016 3.59L5.73016 2.75ZM5.50016 7.5C5.50016 7.89556 5.61746 8.28224 5.83722 8.61114C6.05699 8.94004 6.36934 9.19638 6.73479 9.34776C7.10025 9.49913 7.50238 9.53874 7.89034 9.46157C8.2783 9.3844 8.63467 9.19392 8.91438 8.91421C9.19408 8.63451 9.38456 8.27814 9.46173 7.89018C9.5389 7.50222 9.4993 7.10009 9.34792 6.73463C9.19655 6.36918 8.9402 6.05682 8.6113 5.83706C8.2824 5.6173 7.89572 5.5 7.50016 5.5C6.96973 5.5 6.46102 5.71071 6.08595 6.08579C5.71088 6.46086 5.50016 6.96957 5.50016 7.5Z" stroke="#6C1C16" stroke-linecap="round" stroke-linejoin="round"/>
</g>
<defs>
<clipPath id="clip0_431_13004">
<rect width="14" height="14" fill="white" transform="translate(0.5 0.5)"/>
</clipPath>
</defs>
</svg>
