<svg width="33" height="28" viewBox="0 0 33 28" fill="none" xmlns="http://www.w3.org/2000/svg">
<path d="M12.5695 23.1362C-0.469029 17.77 1.45468 8.00532 4.87462 3.69476C3.9662 4.44251 3.11122 5.27823 2.30967 6.24591C1.34781 7.52148 -0.896521 10.9523 0.385955 15.3509C1.61499 19.7054 5.35555 22.6524 8.29455 24.2359C13.0504 26.831 17.6994 27.4028 20.959 27.2269C25.8217 26.963 29.0279 24.6317 30.631 22.5644C31.5929 21.3328 32.0204 20.1452 32.1807 19.6614C31.7532 20.2332 25.5545 28.4585 12.5695 23.1362Z" fill="#E3403D"/>
<path d="M21.4399 22.9163C21.2261 22.9603 20.9589 22.9603 20.7452 22.9603C18.0199 23.0043 15.0809 22.2126 12.9969 21.3329C11.4473 20.6731 9.41667 19.5295 7.86701 17.858C0.0118459 9.63279 10.1648 1.18762 12.9435 0.175964C12.4091 0.263935 11.7679 0.351905 11.1266 0.527846C9.41667 0.967699 7.06546 1.97936 4.928 3.69478C4.55395 4.04667 4.23333 4.39855 3.91271 4.79441C2.95085 6.026 0.813393 9.36888 2.04243 13.6354C3.27147 17.902 6.85171 20.7611 9.79072 22.3005C14.4397 24.8077 18.9284 25.3795 22.1345 25.2036C26.8904 24.9397 30.0431 22.6524 31.5928 20.6291C31.86 20.2772 32.1272 19.9253 32.2875 19.5735C32.3409 19.4415 32.3409 19.3535 32.3409 19.3535C32.4478 19.0016 32.6081 18.3419 32.6615 18.1219C32.9822 16.4065 32.8218 14.6911 32.4478 13.2836C31.9134 16.4065 28.9744 22.3885 21.4399 22.9163Z" fill="#FC9E15"/>
<path d="M29.9363 8.18125C29.6692 7.7414 29.1882 7.21357 29.1882 7.16959C28.8142 6.68575 28.3867 6.2459 28.0661 5.938C27.2645 5.14627 25.7683 5.01431 24.8064 5.67409C23.7911 6.33387 23.6308 7.52147 24.4324 8.40118C25.3408 9.36885 25.8752 10.1166 26.5164 11.2602C26.7836 11.788 27.3714 12.9756 27.692 14.4272C27.9592 15.7027 28.1195 18.2539 26.463 20.3212C25.9286 20.981 24.6461 22.4325 22.0277 22.8723H21.9209C21.7606 22.9163 21.6003 22.9163 21.4399 22.9163C21.7071 22.9163 21.9743 22.9163 22.2415 22.8723C26.4095 22.6524 29.1882 20.6291 30.5776 18.8697C31.6463 17.4621 31.9669 16.1866 31.9669 16.1866C32.0738 15.8787 32.1807 15.3069 32.2341 15.1309C32.341 14.5151 32.3944 13.9433 32.3944 13.3715C32.2341 12.7117 32.0204 12.1399 31.8601 11.6121C31.3257 10.3365 30.631 9.19291 29.9363 8.18125Z" fill="#1391D2"/>
<path d="M6.74489 16.3185C6.37084 15.7027 6.10365 15.043 5.88991 14.3392C5.62273 13.3715 5.46242 10.8644 7.22582 8.70908C9.14953 6.42184 11.3404 4.92635 16.4703 4.88236C18.1269 4.88236 19.4093 4.1786 19.5696 2.81506C19.73 1.45151 18.6612 0.263911 16.8978 0.0879705C16.31 0 15.6688 0 15.0275 0C15.0275 0 14.1726 0 12.8901 0.175941C10.8595 0.879705 8.0808 2.3752 6.15709 4.83838C5.30211 5.93801 3.43183 8.88502 4.50056 12.6677C5.08836 14.779 6.37084 16.4945 7.81362 17.858C7.43957 17.3742 7.06551 16.8463 6.74489 16.3185Z" fill="#1391D2"/>
</svg>
